# xmcd CD database file generated by Grip 3.2.0
# 
# Track frame offsets:
#       150
#       13826
#       28235
#       40662
#       53164
#       73104
#       87416
#       99297
#       102838
#       118911
#       139603
#       159372
#       171579
#       188890
#       206735
#       227232
#       238104
#       257185
# 
# Disc length: 3729 seconds
# 
# Revision: 1
# Processed by: cddbd v1.5.2PL0 Copyright (c) Steve Scherf et al.
# Submitted via: Grip 3.2.0
# 
DISCID=020e8f12
DTITLE=Y Tebot Piws - Y Gore a'r Gwaetha o'r Tebot Piws
DYEAR=1970
DGENRE=Avantgarde
TTITLE0=Yr Hogyn Pren
TTITLE1=Dan Ddwr Oer y Llyn
TTITLE2=Llanfihangel
TTITLE3=Marwnad Llon Wili John
TTITLE4=Blaenau Ffestiniog
TTITLE5=Lleucu Llwyd
TTITLE6=Tyrd i Ffwrdd
TTITLE7=O Arglwydd Mae'n Uffern yn y Pwll
TTITLE8=Godro'r Fuwch
TTITLE9=Mae Rhywun Wedi Dwyn Fy Nhrwyn
TTITLE10=Nwy yn y Nen
TTITLE11=Helo Dymbo
TTITLE12=Ie,ie, 'na fe
TTITLE13=D'yn ni ddim yn mynd i Birmingham
TTITLE14=Dilyn Colomen
TTITLE15=Mae Gen i Gariad
TTITLE16=I Ble Rwyt Ti'n Myned
TTITLE17=Diferion o Waelod y Tebot
EXTD=
EXTT0=
EXTT1=
EXTT2=
EXTT3=
EXTT4=
EXTT5=
EXTT6=
EXTT7=
EXTT8=
EXTT9=Somebody has stolen my nose
EXTT10=
EXTT11=
EXTT12=
EXTT13=
EXTT14=
EXTT15=
EXTT16=
EXTT17=
PLAYORDER=
